<svg width="150" height="75" viewBox="0 0 150 75" fill="none" xmlns="http://www.w3.org/2000/svg">
<path d="M0 7.62939e-06C8.61039e-07 9.84914 1.93993 19.6018 5.70904 28.7013C9.47814 37.8007 15.0026 46.0686 21.967 53.033C28.9314 59.9974 37.1993 65.5219 46.2988 69.291C55.3982 73.0601 65.1509 75 75 75C84.8492 75 94.6018 73.0601 103.701 69.291C112.801 65.5219 121.069 59.9974 128.033 53.033C134.997 46.0686 140.522 37.8007 144.291 28.7012C148.06 19.6018 150 9.84913 150 -1.52588e-05H146.25C146.25 9.35667 144.407 18.6217 140.826 27.2662C137.246 35.9106 131.998 43.7652 125.381 50.3813C118.765 56.9975 110.911 62.2458 102.266 65.8264C93.6218 69.4071 84.3567 71.25 75 71.25C65.6433 71.25 56.3783 69.4071 47.7338 65.8264C39.0894 62.2458 31.2348 56.9975 24.6186 50.3814C18.0025 43.7652 12.7542 35.9106 9.17359 27.2662C5.59294 18.6218 3.75 9.35669 3.75 7.62939e-06H0Z" fill="white"/>
</svg>
