<svg width="200" height="100" viewBox="0 0 200 100" fill="none" xmlns="http://www.w3.org/2000/svg">
<path d="M0 7.62939e-06C1.14805e-06 13.1322 2.58658 26.1358 7.61205 38.2684C12.6375 50.4009 20.0035 61.4248 29.2893 70.7107C38.5752 79.9965 49.5991 87.3625 61.7317 92.388C73.8642 97.4134 86.8678 100 100 100C113.132 100 126.136 97.4134 138.268 92.3879C150.401 87.3625 161.425 79.9965 170.711 70.7107C179.997 61.4248 187.362 50.4009 192.388 38.2683C197.413 26.1358 200 13.1322 200 -1.52588e-05H195C195 12.4756 192.543 24.829 187.769 36.3549C182.994 47.8808 175.997 58.3536 167.175 67.1751C158.354 75.9967 147.881 82.9944 136.355 87.7686C124.829 92.5427 112.476 95 100 95C87.5244 95 75.171 92.5428 63.6451 87.7686C52.1192 82.9944 41.6464 75.9967 32.8249 67.1752C24.0033 58.3536 17.0056 47.8809 12.2314 36.3549C7.45725 24.829 5 12.4756 5 7.62939e-06H0Z" fill="white"/>
</svg>
