<svg width="19" height="18" viewBox="0 0 19 18" fill="none" xmlns="http://www.w3.org/2000/svg">
<path fill-rule="evenodd" clip-rule="evenodd" d="M9.95184 18C11.1337 18 12.3041 17.7672 13.396 17.3149C14.4879 16.8626 15.4801 16.1997 16.3158 15.364C17.1515 14.5282 17.8145 13.5361 18.2668 12.4442C18.7191 11.3522 18.9518 10.1819 18.9518 9C18.9518 7.8181 18.7191 6.64778 18.2668 5.55585C17.8145 4.46392 17.1515 3.47177 16.3158 2.63604C15.4801 1.80031 14.4879 1.13738 13.396 0.685084C12.3041 0.232792 11.1337 -1.76116e-08 9.95184 0C7.56489 3.55683e-08 5.27571 0.948211 3.58788 2.63604C1.90005 4.32387 0.951843 6.61305 0.951843 9C0.951843 11.3869 1.90005 13.6761 3.58788 15.364C5.27571 17.0518 7.56489 18 9.95184 18ZM9.71984 12.64L14.7198 6.64L13.1838 5.36L8.88384 10.519L6.65884 8.293L5.24484 9.707L8.24484 12.707L9.01884 13.481L9.71984 12.64Z" fill="#1A00E1"/>
</svg>
