<svg width="21" height="22" viewBox="0 0 21 22" fill="none" xmlns="http://www.w3.org/2000/svg">
<path d="M10.5 0.5C16.023 0.5 20.5 4.80994 20.5 10.1268C20.5 15.4438 16.023 19.7537 10.5 19.7537C4.977 19.7537 0.5 15.4438 0.5 10.1268C0.5 4.80994 4.977 0.5 10.5 0.5ZM10.5 4.35074C10.2348 4.35074 9.98043 4.45216 9.79289 4.6327C9.60536 4.81324 9.5 5.0581 9.5 5.31342V10.1268C9.50006 10.3821 9.60545 10.627 9.793 10.8075L12.793 13.6955C12.9816 13.8709 13.2342 13.9679 13.4964 13.9657C13.7586 13.9635 14.0094 13.8623 14.1948 13.6838C14.3802 13.5053 14.4854 13.2638 14.4877 13.0114C14.49 12.759 14.3892 12.5158 14.207 12.3343L11.5 9.7283V5.31342C11.5 5.0581 11.3946 4.81324 11.2071 4.6327C11.0196 4.45216 10.7652 4.35074 10.5 4.35074Z" fill="#049BD2"/>
</svg>
