<svg width="81" height="80" viewBox="0 0 81 80" fill="none" xmlns="http://www.w3.org/2000/svg">
<path d="M25.5 40C25.5022 37.1356 25.6167 34.3578 25.8433 31.6667H55.1567C55.3833 34.3578 55.4978 37.1356 55.5 40C55.5127 45.0226 55.127 50.0383 54.3467 55H26.6533C25.8744 50.0382 25.4887 45.0226 25.5 40ZM21.5933 55C20.4712 47.2749 20.2141 39.4488 20.8267 31.6667H1.37002C0.789089 34.4063 0.49749 37.1994 0.500016 40C0.500016 45.3033 1.53335 50.3667 3.40668 55H21.5933ZM5.85002 60H22.5C23.3633 64.0567 24.4833 67.7667 25.8167 71.0033C27.0067 73.89 28.3867 76.4633 29.9567 78.5933C19.7906 75.8047 11.1282 69.125 5.85002 60ZM27.62 60H53.3867C52.6993 63.1059 51.7561 66.1496 50.5667 69.1C49.0567 72.7667 47.3233 75.5667 45.5233 77.4167C43.7333 79.2567 42.0333 80 40.5 80C38.9667 80 37.27 79.2567 35.48 77.4167C33.68 75.57 31.9467 72.7667 30.4367 69.1C29.2473 66.1496 28.3074 63.1059 27.62 60ZM58.5033 60C57.7335 63.7607 56.6234 67.4436 55.1867 71.0033C53.9967 73.89 52.6167 76.4633 51.0467 78.5933C61.2115 75.8039 69.8693 69.1243 75.1467 60H58.5033ZM77.5933 55C79.4667 50.3667 80.5 45.3033 80.5 40C80.5 37.1433 80.2 34.3533 79.6333 31.6667H60.1733C60.7859 39.4488 60.5288 47.2749 59.4067 55H77.5933ZM50.56 10.9C52.35 15.2367 53.75 20.6133 54.5967 26.6667H26.4033C27.25 20.6133 28.65 15.2367 30.4367 10.9C31.9467 7.23333 33.68 4.43333 35.48 2.58333C37.2667 0.743334 38.9667 0 40.5 0C42.0333 0 43.73 0.743334 45.52 2.58333C47.32 4.43 49.05 7.23333 50.56 10.9ZM59.6467 26.6667H78.2267C76.0664 20.5786 72.4673 15.1025 67.7355 10.7044C63.0038 6.30643 57.2796 3.11668 51.05 1.40667C52.6167 3.53667 54 6.11 55.19 8.99667C57.2233 13.94 58.7633 19.9733 59.6467 26.6667ZM2.78002 26.6667H21.36C22.2433 19.9733 23.7833 13.94 25.8167 8.99667C27.0067 6.11 28.3867 3.53667 29.9567 1.40667C23.7265 3.11621 18.0016 6.30575 13.2692 10.7038C8.5369 15.1018 4.94059 20.5782 2.78002 26.6667Z" fill="#0C1146"/>
</svg>
