<svg width="71" height="81" viewBox="0 0 71 81" fill="none" xmlns="http://www.w3.org/2000/svg">
<path d="M35.4852 0.5C36.1656 0.5 36.846 0.657109 37.4673 0.955617L65.3347 13.5086C68.5889 14.9698 71.0147 18.379 70.9999 22.4953C70.926 38.0805 64.891 66.5958 39.405 79.5573C36.9348 80.8142 34.0652 80.8142 31.595 79.5573C6.09422 66.5958 0.0740255 38.0805 6.72797e-05 22.4953C-0.0147244 18.379 2.4111 14.9698 5.66527 13.5086L33.5179 0.955617C34.1392 0.657109 34.8048 0.5 35.4852 0.5ZM35.4852 10.9949V70.3979C55.8977 59.903 61.3854 36.6508 61.5185 22.7309L35.4852 11.0106V10.9949Z" fill="#0C1146"/>
</svg>
