<svg width="71" height="80" viewBox="0 0 71 80" fill="none" xmlns="http://www.w3.org/2000/svg">
<path d="M0 37.5111C0 16.6631 16.0163 0 35.5 0C54.9837 0 71 16.6631 71 37.5111V52.6009C71 52.9268 70.9851 53.2486 70.9554 53.5662C70.9851 53.7796 71 53.9982 71 54.2222C71 57.7244 70.5988 61.5413 70.2074 64.4569C69.5932 69.0204 67.0851 73.5467 62.4932 75.504C57.5513 77.6124 48.9702 80 35.5 80C34.4052 80 33.3553 79.5318 32.5811 78.6983C31.807 77.8648 31.3721 76.7343 31.3721 75.5556C31.3721 74.3768 31.807 73.2464 32.5811 72.4129C33.3553 71.5794 34.4052 71.1111 35.5 71.1111C48.0538 71.1111 55.5864 68.8889 59.4534 67.2409C60.7116 66.704 61.7485 65.3262 62.0358 63.184C62.0722 62.9126 62.1079 62.6364 62.1432 62.3556C59.8216 62.912 57.1401 63.4489 54.4735 63.7493C50.9697 64.1458 47.5535 61.872 46.9145 57.776C46.5413 55.3938 46.2326 51.9573 46.2326 47.1093C46.2326 42.2649 46.5413 38.8302 46.9145 36.4462C47.5535 32.3502 50.9697 30.0764 54.4735 30.4729C55.8803 30.6311 57.292 30.8551 58.651 31.1129C55.9629 20.4391 46.6998 12.4444 35.5 12.4444C24.3002 12.4444 15.0388 20.4391 12.349 31.1129C13.7343 30.8478 15.1276 30.6344 16.5265 30.4729C20.0303 30.0764 23.4465 32.3502 24.0872 36.4462C24.4587 38.8284 24.7674 42.2649 24.7674 47.1111C24.7674 51.9573 24.4587 55.392 24.0872 57.776C23.4465 61.872 20.0303 64.1458 16.5265 63.7493C12.8972 63.3404 9.24486 62.496 6.50393 61.7582C2.54114 60.6898 0 56.8213 0 52.6027V37.5111Z" fill="#0C1146"/>
</svg>
