<svg width="89" height="80" viewBox="0 0 89 80" fill="none" xmlns="http://www.w3.org/2000/svg">
<path d="M61.1875 5.71429C61.1875 4.19876 61.7735 2.74531 62.8167 1.67368C63.8599 0.602039 65.2747 0 66.75 0H77.875C79.3503 0 80.7651 0.602039 81.8083 1.67368C82.8514 2.74531 83.4375 4.19876 83.4375 5.71429V74.2857H86.2188C86.9564 74.2857 87.6638 74.5867 88.1854 75.1226C88.707 75.6584 89 76.3851 89 77.1429C89 77.9006 88.707 78.6273 88.1854 79.1632C87.6638 79.699 86.9564 80 86.2188 80H2.78125C2.04362 80 1.33619 79.699 0.814609 79.1632C0.293024 78.6273 0 77.9006 0 77.1429C0 76.3851 0.293024 75.6584 0.814609 75.1226C1.33619 74.5867 2.04362 74.2857 2.78125 74.2857H5.5625V57.1429C5.5625 55.6273 6.14855 54.1739 7.19172 53.1022C8.23489 52.0306 9.64973 51.4286 11.125 51.4286H22.25C23.7253 51.4286 25.1401 52.0306 26.1833 53.1022C27.2265 54.1739 27.8125 55.6273 27.8125 57.1429V74.2857H33.375V34.2857C33.375 32.7702 33.961 31.3167 35.0042 30.2451C36.0474 29.1735 37.4622 28.5714 38.9375 28.5714H50.0625C51.5378 28.5714 52.9526 29.1735 53.9958 30.2451C55.039 31.3167 55.625 32.7702 55.625 34.2857V74.2857H61.1875V5.71429Z" fill="#0C1146"/>
</svg>
