<svg width="19" height="22" viewBox="0 0 19 22" fill="none" xmlns="http://www.w3.org/2000/svg">
<path d="M10.0929 20.9646L10.0819 20.9666L10.0109 21.0002L9.99093 21.0041L9.97693 21.0002L9.90593 20.9666C9.89526 20.9633 9.88726 20.9649 9.88193 20.9714L9.87793 20.981L9.86093 21.393L9.86593 21.4123L9.87593 21.4248L9.97993 21.496L9.99493 21.4999L10.0069 21.496L10.1109 21.4248L10.1229 21.4094L10.1269 21.393L10.1099 20.982C10.1073 20.9717 10.1016 20.9659 10.0929 20.9646ZM10.3579 20.8558L10.3449 20.8578L10.1599 20.9473L10.1499 20.9569L10.1469 20.9675L10.1649 21.3815L10.1699 21.393L10.1779 21.3998L10.3789 21.4893C10.3916 21.4925 10.4013 21.4899 10.4079 21.4816L10.4119 21.4681L10.3779 20.877C10.3746 20.8655 10.3679 20.8584 10.3579 20.8558ZM9.64293 20.8578C9.63852 20.8552 9.63325 20.8544 9.62822 20.8554C9.62319 20.8565 9.61879 20.8594 9.61593 20.8635L9.60993 20.877L9.57593 21.4681C9.57659 21.4797 9.58226 21.4874 9.59293 21.4912L9.60793 21.4893L9.80893 21.3998L9.81893 21.3921L9.82293 21.3815L9.83993 20.9675L9.83693 20.956L9.82693 20.9463L9.64293 20.8578Z" fill="#049BD2"/>
<path d="M9.5 0.5C11.8869 0.5 14.1761 1.41283 15.864 3.03767C17.5518 4.66252 18.5 6.86628 18.5 9.16416C18.5 12.1235 16.824 14.5456 15.058 16.2832C14.1757 17.142 13.2129 17.9206 12.182 18.6091L11.756 18.8882L11.556 19.0163L11.179 19.2473L10.843 19.4447L10.427 19.6776C10.1446 19.8328 9.82513 19.9144 9.5 19.9144C9.17487 19.9144 8.85537 19.8328 8.573 19.6776L8.157 19.4447L7.637 19.1366L7.445 19.0163L7.035 18.7535C5.92283 18.0291 4.8869 17.2017 3.942 16.2832C2.176 14.5446 0.5 12.1235 0.5 9.16416C0.5 6.86628 1.44821 4.66252 3.13604 3.03767C4.82387 1.41283 7.11305 0.5 9.5 0.5ZM9.5 6.27611C9.10603 6.27611 8.71593 6.35081 8.35195 6.49595C7.98797 6.64109 7.65726 6.85382 7.37868 7.122C7.1001 7.39018 6.87913 7.70856 6.72836 8.05895C6.5776 8.40935 6.5 8.7849 6.5 9.16416C6.5 9.54343 6.5776 9.91898 6.72836 10.2694C6.87913 10.6198 7.1001 10.9381 7.37868 11.2063C7.65726 11.4745 7.98797 11.6872 8.35195 11.8324C8.71593 11.9775 9.10603 12.0522 9.5 12.0522C10.2956 12.0522 11.0587 11.7479 11.6213 11.2063C12.1839 10.6647 12.5 9.93012 12.5 9.16416C12.5 8.3982 12.1839 7.66361 11.6213 7.122C11.0587 6.58038 10.2956 6.27611 9.5 6.27611Z" fill="#049BD2"/>
</svg>
