<svg width="17" height="20" viewBox="0 0 17 20" fill="none" xmlns="http://www.w3.org/2000/svg">
<path d="M8.43196 6.98129L6.77776 8.46514C6.99643 9.21343 7.30187 9.93358 7.68787 10.6109C8.0905 11.2833 8.57565 11.9027 9.13205 12.4548L11.2743 11.7948C12.4745 11.4249 13.7846 11.8048 14.5827 12.7547L15.8029 14.2066C16.2969 14.7894 16.5445 15.5416 16.4934 16.3039C16.4422 17.0661 16.0963 17.7785 15.5288 18.2902C13.5386 20.106 10.4742 20.7199 8.17993 18.9181C6.16262 17.3317 4.45635 15.3858 3.14731 13.1787C1.83494 10.9824 0.956281 8.55473 0.558988 6.02738C0.118934 3.18366 2.20119 0.907879 4.79751 0.131955C6.34571 -0.332 7.99791 0.463922 8.56598 1.94778L9.23606 3.69761C9.67612 4.84949 9.36008 6.14937 8.43196 6.98129Z" fill="#049BD2"/>
</svg>
