<svg width="40" height="39" viewBox="0 0 40 39" fill="none" xmlns="http://www.w3.org/2000/svg">
<path d="M19.9708 35.1487L20.2704 26.91L26.3614 21.06H30.2558V24.6675L34.7991 25.35C35.1652 24.44 35.4568 23.4975 35.6738 22.5225C35.8908 21.5475 35.9987 20.54 35.9974 19.5C35.9974 16.6075 35.2571 13.9672 33.7766 11.5791C32.2961 9.191 30.3569 7.3138 27.9591 5.9475V11.7H21.9679V17.55H17.9737V23.4H13.9296L9.9854 17.55H7.98832V19.5L4.4435 23.3512C5.3089 26.7312 7.1815 29.5425 10.0613 31.785C12.9411 34.0275 16.2442 35.1487 19.9708 35.1487ZM27.9591 23.4H21.9679V19.5H27.9591V23.4ZM27.9591 11.7H32.0032L30.0061 17.55H25.9121L27.9591 11.7ZM19.9708 39C17.2082 39 14.612 38.4878 12.1822 37.4634C9.75241 36.439 7.63883 35.0499 5.84146 33.2962C4.04409 31.5425 2.6215 29.4788 1.5737 27.105C0.5259 24.7312 0.00133391 22.1962 2.52795e-06 19.5C-0.00132886 16.8038 0.523237 14.2688 1.5737 11.895C2.62416 9.5212 4.04675 7.45745 5.84146 5.70375C7.63617 3.95005 9.74974 2.561 12.1822 1.5366C14.6146 0.5122 17.2108 0 19.9708 0C22.7308 0 25.327 0.5122 27.7594 1.5366C30.1918 2.561 32.3054 3.95005 34.1001 5.70375C35.8948 7.45745 37.3181 9.5212 38.3699 11.895C39.4217 14.2688 39.9456 16.8038 39.9416 19.5C39.9376 22.1962 39.413 24.7312 38.3679 27.105C37.3227 29.4788 35.9002 31.5425 34.1001 33.2962C32.3001 35.0499 30.1865 36.4396 27.7594 37.4653C25.3323 38.491 22.7361 39.0026 19.9708 39Z" fill="white"/>
</svg>
