<svg width="42" height="31" viewBox="0 0 42 31" fill="none" xmlns="http://www.w3.org/2000/svg">
<path d="M0 29.2744V10.1792C0 8.59947 1.04191 7.18256 2.63427 6.5977L20.1895 0.140184C20.6876 -0.0467281 21.2446 -0.0467281 21.7491 0.140184L39.3044 6.5977C40.8968 7.18256 41.9387 8.6055 41.9387 10.1792V29.2744C41.9387 30.0763 41.2375 30.7214 40.366 30.7214H37.2206C36.349 30.7214 35.6479 30.0763 35.6479 29.2744V13.3567C35.6479 12.2895 34.7108 11.4273 33.5509 11.4273H8.38774C7.22787 11.4273 6.2908 12.2895 6.2908 13.3567V29.2744C6.2908 30.0763 5.58964 30.7214 4.7181 30.7214H1.5727C0.701162 30.7214 0 30.0763 0 29.2744ZM31.9782 30.7214H9.96044C9.0889 30.7214 8.38774 30.0763 8.38774 29.2744V25.8979H33.5509V29.2744C33.5509 30.0763 32.8498 30.7214 31.9782 30.7214ZM8.38774 23.9685V20.1097H33.5509V23.9685H8.38774ZM8.38774 18.1802V13.3567H33.5509V18.1802H8.38774Z" fill="white"/>
</svg>
