<svg width="46" height="33" viewBox="0 0 46 33" fill="none" xmlns="http://www.w3.org/2000/svg">
<path d="M35.4936 29.9062C34.663 29.9062 33.8664 29.5803 33.2791 29.0001C32.6917 28.4199 32.3618 27.633 32.3618 26.8125C32.3618 25.992 32.6917 25.2051 33.2791 24.6249C33.8664 24.0447 34.663 23.7188 35.4936 23.7188C36.3242 23.7188 37.1207 24.0447 37.7081 24.6249C38.2954 25.2051 38.6253 25.992 38.6253 26.8125C38.6253 27.633 38.2954 28.4199 37.7081 29.0001C37.1207 29.5803 36.3242 29.9062 35.4936 29.9062ZM38.6253 11.3438L42.7175 16.5H33.4057V11.3438M10.4393 29.9062C9.60868 29.9062 8.8121 29.5803 8.22478 29.0001C7.63745 28.4199 7.3075 27.633 7.3075 26.8125C7.3075 25.992 7.63745 25.2051 8.22478 24.6249C8.8121 24.0447 9.60868 23.7188 10.4393 23.7188C11.2699 23.7188 12.0665 24.0447 12.6538 24.6249C13.2411 25.2051 13.5711 25.992 13.5711 26.8125C13.5711 27.633 13.2411 28.4199 12.6538 29.0001C12.0665 29.5803 11.2699 29.9062 10.4393 29.9062ZM39.6693 8.25H33.4057V0H4.17571C1.85819 0 0 1.83562 0 4.125V26.8125H4.17571C4.17571 28.4535 4.83562 30.0273 6.01027 31.1877C7.18492 32.3481 8.77808 33 10.4393 33C12.1005 33 13.6936 32.3481 14.8683 31.1877C16.0429 30.0273 16.7029 28.4535 16.7029 26.8125H29.23C29.23 28.4535 29.8899 30.0273 31.0645 31.1877C32.2392 32.3481 33.8324 33 35.4936 33C37.1548 33 38.7479 32.3481 39.9226 31.1877C41.0972 30.0273 41.7571 28.4535 41.7571 26.8125H45.9328V16.5L39.6693 8.25Z" fill="white"/>
</svg>
