<svg width="40" height="37" viewBox="0 0 40 37" fill="none" xmlns="http://www.w3.org/2000/svg">
<path d="M17.4745 0V4.5384C17.4745 5.16243 18.0361 5.67299 18.7226 5.67299H21.219C21.9055 5.67299 22.4672 5.16243 22.4672 4.5384V0H24.9635C27.7173 0 29.9562 2.03519 29.9562 4.5384V13.6152C29.9562 14.0052 29.9016 14.3881 29.8002 14.7498H10.1414C10.04 14.3881 9.9854 14.0052 9.9854 13.6152V4.5384C9.9854 2.03519 12.2243 0 14.9781 0H17.4745ZM24.9635 36.3072C24.0898 36.3072 23.2629 36.1015 22.5452 35.7399C23.2863 34.5698 23.7153 33.2154 23.7153 31.7688V22.692C23.7153 21.2454 23.2863 19.8909 22.5452 18.7209C23.2629 18.3592 24.082 18.1536 24.9635 18.1536H27.4599V22.692C27.4599 23.316 28.0215 23.8266 28.708 23.8266H31.2044C31.8909 23.8266 32.4526 23.316 32.4526 22.692V18.1536H34.9489C37.7027 18.1536 39.9416 20.1888 39.9416 22.692V31.7688C39.9416 34.272 37.7027 36.3072 34.9489 36.3072H24.9635ZM0 22.692C0 20.1888 2.23891 18.1536 4.9927 18.1536H7.48905V22.692C7.48905 23.316 8.05073 23.8266 8.73723 23.8266H11.2336C11.9201 23.8266 12.4818 23.316 12.4818 22.692V18.1536H14.9781C17.7319 18.1536 19.9708 20.1888 19.9708 22.692V31.7688C19.9708 34.272 17.7319 36.3072 14.9781 36.3072H4.9927C2.23891 36.3072 0 34.272 0 31.7688V22.692Z" fill="white"/>
</svg>
