<svg width="50" height="33" viewBox="0 0 50 33" fill="none" xmlns="http://www.w3.org/2000/svg">
<path d="M5.78102 19.5938L4.20438 16.5H15.2409L13.9796 13.4062H3.67883L2.10219 10.3125H18.4993L17.238 7.21875H1.80788L0 4.125H7.88321C7.88321 3.03098 8.32617 1.98177 9.11465 1.20818C9.90312 0.434597 10.9725 0 12.0876 0H37.3139V8.25H43.6204L49.927 16.5V26.8125H45.7226C45.7226 28.4535 45.0582 30.0273 43.8755 31.1877C42.6928 32.3481 41.0887 33 39.4161 33C37.7435 33 36.1394 32.3481 34.9566 31.1877C33.7739 30.0273 33.1095 28.4535 33.1095 26.8125H24.7007C24.7007 28.4535 24.0363 30.0273 22.8536 31.1877C21.6709 32.3481 20.0668 33 18.3942 33C16.7216 33 15.1175 32.3481 13.9347 31.1877C12.752 30.0273 12.0876 28.4535 12.0876 26.8125H7.88321V19.5938H5.78102ZM39.4161 29.9062C40.2524 29.9062 41.0544 29.5803 41.6458 29.0001C42.2371 28.4199 42.5693 27.633 42.5693 26.8125C42.5693 25.992 42.2371 25.2051 41.6458 24.6249C41.0544 24.0447 40.2524 23.7188 39.4161 23.7188C38.5798 23.7188 37.7777 24.0447 37.1864 24.6249C36.595 25.2051 36.2628 25.992 36.2628 26.8125C36.2628 27.633 36.595 28.4199 37.1864 29.0001C37.7777 29.5803 38.5798 29.9062 39.4161 29.9062ZM42.5693 11.3438H37.3139V16.5H46.6896L42.5693 11.3438ZM18.3942 29.9062C19.2305 29.9062 20.0325 29.5803 20.6239 29.0001C21.2152 28.4199 21.5474 27.633 21.5474 26.8125C21.5474 25.992 21.2152 25.2051 20.6239 24.6249C20.0325 24.0447 19.2305 23.7188 18.3942 23.7188C17.5579 23.7188 16.7558 24.0447 16.1645 24.6249C15.5731 25.2051 15.2409 25.992 15.2409 26.8125C15.2409 27.633 15.5731 28.4199 16.1645 29.0001C16.7558 29.5803 17.5579 29.9062 18.3942 29.9062Z" fill="white"/>
</svg>
